# xmcd
#
# Track frame offsets: 
#        150
#        18819
#        33565
#        55359
#        68755
#        84702
#        102029
#        117852
#        133553
#        149489
#        167300
#
# Disc length: 2375 seconds
#
# Revision: 2
# Processed by: cddbd v1.5.2PL0 Copyright (c) Steve Scherf et al.
# Submitted via: ExactAudioCopyFreeDBPlugin 1.0
#
DISCID=8c09450b
DTITLE=Infamous Stringdusters - Let it Go
DYEAR=2014
DGENRE=Bluegrass
TTITLE0=I'll Get Away
TTITLE1=Where the Rivers Run Cold
TTITLE2=Winds of Change
TTITLE3=Rainbows
TTITLE4=Summercamp
TTITLE5=Middlefork
TTITLE6=By My Side
TTITLE7=Colorado
TTITLE8=Peace of Mind
TTITLE9=Light and Love
TTITLE10=Let it Go
EXTD=YEAR: 2014
EXTT0=
EXTT1=
EXTT2=
EXTT3=
EXTT4=
EXTT5=
EXTT6=
EXTT7=
EXTT8=
EXTT9=
EXTT10=
PLAYORDER=
